<svg width="36" height="36" viewBox="0 0 36 36" fill="none" xmlns="http://www.w3.org/2000/svg">
<path fill-rule="evenodd" clip-rule="evenodd" d="M17.7778 35.7778C27.5962 35.7778 35.5556 27.8184 35.5556 18C35.5556 8.18161 27.5962 0.222229 17.7778 0.222229C7.95938 0.222229 0 8.18161 0 18C0 27.8184 7.95938 35.7778 17.7778 35.7778ZM16.7882 11.7066C16.1063 11.252 15.2296 11.2096 14.507 11.5963C13.7844 11.983 13.3333 12.736 13.3333 13.5556V22.4445C13.3333 23.264 13.7844 24.017 14.507 24.4037C15.2296 24.7904 16.1063 24.7481 16.7882 24.2935L23.4549 19.849C24.0731 19.4369 24.4444 18.743 24.4444 18C24.4444 17.257 24.0731 16.5632 23.4549 16.151L16.7882 11.7066Z" fill="white"/>
</svg>
